<svg width="15" height="9" viewBox="0 0 15 9" fill="none" xmlns="http://www.w3.org/2000/svg">
<path fill-rule="evenodd" clip-rule="evenodd" d="M7.58781 6.51377L1.74485 0.670525C1.38505 0.310842 0.803084 0.310259 0.444422 0.66893C0.083251 1.0301 0.0864591 1.60979 0.446016 1.96936L6.93677 8.4601C6.93699 8.46045 6.93733 8.46067 6.93756 8.4609C6.9379 8.46124 6.93813 8.46147 6.93836 8.46181C7.11872 8.64205 7.35352 8.73161 7.58811 8.73126C7.82338 8.73035 8.05807 8.6408 8.23718 8.46181C8.23741 8.46147 8.23775 8.46124 8.23798 8.4609C8.23832 8.46067 8.23855 8.46045 8.23878 8.4601L14.7298 1.96936C15.0895 1.60967 15.0901 1.02759 14.7314 0.668931C14.3702 0.30776 13.7904 0.310968 13.431 0.670526L7.58781 6.51377Z" fill="#222222"/>
</svg>
