<svg width="40" height="40" viewBox="0 0 40 40" fill="none" xmlns="http://www.w3.org/2000/svg">
<path fill-rule="evenodd" clip-rule="evenodd" d="M17.8857 20.5655L23.7289 26.4085C24.0886 26.7683 24.0892 27.3502 23.7305 27.7089C23.3694 28.0701 22.7897 28.0669 22.4301 27.7073L15.9393 21.2166C15.939 21.2163 15.9388 21.216 15.9385 21.2158C15.9382 21.2154 15.938 21.2152 15.9376 21.215C15.7574 21.0346 15.6678 20.7998 15.6682 20.5652C15.6691 20.3299 15.7587 20.0953 15.9376 19.9161C15.938 19.9159 15.9382 19.9156 15.9385 19.9153C15.9388 19.915 15.939 19.9148 15.9393 19.9145L22.4301 13.4235C22.7898 13.0638 23.3719 13.0632 23.7305 13.4219C24.0917 13.7831 24.0885 14.3629 23.7289 14.7223L17.8857 20.5655Z" fill="#222222"/>
</svg>
