<svg width="29" height="24" viewBox="0 0 29 24" fill="none" xmlns="http://www.w3.org/2000/svg">
<path d="M16.5002 11.2998H25.3002L22.9002 20.6998C22.5002 22.0998 21.2002 23.0998 19.8002 23.0998H9.30017C7.80017 23.0998 6.5002 22.0998 6.2002 20.6998L3.80017 11.2998H12.5002M18.5002 19.7998L19.3002 14.5998M9.7002 14.5998L10.5002 19.7998M14.5002 14.5998V19.7998M25.4002 11.2998C26.5002 11.2998 27.3002 10.3998 27.3002 9.3998C27.3002 8.2998 26.4002 7.4998 25.4002 7.4998H3.60019C2.50019 7.4998 1.7002 8.3998 1.7002 9.3998C1.7002 10.4998 2.60019 11.2998 3.60019 11.2998M6.50018 7.4998L10.1002 1.2998M22.6002 7.4998L19.0002 1.2998" stroke="white" stroke-width="1.5" stroke-miterlimit="10" stroke-linecap="round" stroke-linejoin="round"/>
</svg>
