<svg width="41" height="40" viewBox="0 0 41 40" fill="none" xmlns="http://www.w3.org/2000/svg">
<path d="M20.3475 9C14.4473 9 9.6665 13.7808 9.6665 19.681C9.6665 25.5812 14.4473 30.3621 20.3475 30.3621C26.2477 30.3621 31.0285 25.5812 31.0285 19.681C31.0285 13.7808 26.2477 9 20.3475 9ZM20.3475 28.6531C15.4001 28.6531 11.3755 24.6285 11.3755 19.681C11.3755 14.7336 15.4001 10.709 20.3475 10.709C25.295 10.709 29.3196 14.7336 29.3196 19.681C29.3196 24.6285 25.295 28.6531 20.3475 28.6531Z" fill="#222222"/>
<path d="M23.3208 19.0746L19.4415 15.1953C19.1082 14.862 18.5656 14.862 18.2324 15.1953C17.8991 15.5285 17.8991 16.0711 18.2324 16.4044L21.5136 19.6855L18.2324 22.9668C17.8991 23.3 17.8991 23.8426 18.2324 24.1758C18.399 24.3425 18.6169 24.4279 18.8348 24.4279C19.0527 24.4279 19.2706 24.3425 19.4372 24.1758L23.3165 20.2965C23.4832 20.1299 23.5686 19.9077 23.5686 19.6898C23.5686 19.4634 23.4874 19.2412 23.3208 19.0746Z" fill="#222222"/>
</svg>
