<svg width="40" height="40" viewBox="0 0 40 40" fill="none" xmlns="http://www.w3.org/2000/svg">
<path d="M20.0998 28.1H9.6998C8.0998 28.1 6.7998 26.8 6.7998 25.2V6.60001C6.7998 5.00001 8.0998 3.70001 9.6998 3.70001H19.9998C21.5998 3.70001 22.8998 5.00001 22.8998 6.60001V19.5M10.6998 3.70001V21.3M17.8998 7.20001V10.8M22.9998 19.5L18.7998 15.3C17.8998 14.4 16.4998 14.2 15.4998 15C14.3998 15.9 14.2998 17.5 15.2998 18.5L19.5998 22.8V25C19.5998 27.8 21.8998 30.1 24.6998 30.1M15.2998 28.1V29.4C15.2998 32.7 17.9998 35.4 21.2998 35.4H27.7998C29.3998 35.4 30.5998 34.1 30.5998 32.6V21.3C30.5998 19.4 29.9998 17.6 28.7998 16.1L22.9998 8.89999M14.5998 35.4H32.8998" stroke="#222222" stroke-width="1.5" stroke-miterlimit="10" stroke-linecap="round" stroke-linejoin="round"/>
</svg>
