<svg width="22" height="19" viewBox="0 0 22 19" fill="none" xmlns="http://www.w3.org/2000/svg">
<path d="M15.6584 1.70896C16.9871 1.70896 17.9655 2.03367 18.6491 2.70017C19.3198 3.35811 19.6488 4.29803 19.6488 5.57977C19.6488 6.85723 18.9011 8.25 17.4314 9.724L10.6768 16.2266L3.90071 9.68982L3.84944 9.63855L3.78962 9.58728C3.78962 9.58728 3.73835 9.54456 3.61445 9.41638C3.56746 9.36938 3.4222 9.2113 3.06332 8.75842C2.81125 8.44226 2.58053 8.11333 2.38401 7.78435C2.21311 7.4981 2.05076 7.12639 1.90122 6.68633C1.77305 6.29754 1.70896 5.92584 1.70896 5.57977C1.70896 4.29803 2.03367 3.35811 2.70871 2.70017C3.39229 2.03367 4.37069 1.70896 5.69937 1.70896C6.00699 1.70896 6.3317 1.7645 6.66495 1.87559C7.03665 1.99949 7.38272 2.16611 7.69888 2.37546C8.09194 2.63608 8.43374 2.8796 8.70718 3.0975C8.97634 3.31112 9.23269 3.54183 9.47194 3.78108L10.681 4.99017L11.8901 3.78108C12.1294 3.54183 12.39 3.31112 12.6549 3.0975C12.9326 2.87533 13.2744 2.63181 13.6674 2.37546C13.9836 2.17039 14.3297 1.99949 14.6971 1.87986C15.0261 1.7645 15.3551 1.70896 15.6584 1.70896ZM15.6584 0C15.1671 0 14.6629 0.0854485 14.1502 0.256344C13.6375 0.427242 13.159 0.657949 12.719 0.948476C12.2789 1.239 11.8986 1.51243 11.5825 1.7645C11.2663 2.02085 10.963 2.29001 10.6768 2.57626C10.3905 2.29001 10.0872 2.02085 9.77101 1.7645C9.45485 1.50816 9.07461 1.239 8.63454 0.948476C8.19448 0.657949 7.71597 0.427242 7.20327 0.256344C6.69058 0.0854485 6.18643 0 5.69514 0C3.91353 0 2.52072 0.491328 1.51243 1.47825C0.504144 2.46518 0 3.83235 0 5.57977C0 6.11382 0.0939947 6.6607 0.281981 7.22466C0.469968 7.78862 0.67931 8.27137 0.918567 8.6687C1.15782 9.06604 1.42699 9.45483 1.73033 9.83081C2.03367 10.2068 2.25156 10.4674 2.39255 10.6127C2.53354 10.7537 2.64035 10.8605 2.72152 10.9246L10.1598 18.1022C10.3008 18.2432 10.476 18.3158 10.6853 18.3158C10.8904 18.3158 11.0656 18.2432 11.2108 18.1022L18.6363 10.9502C20.4563 9.13013 21.3663 7.34429 21.3663 5.58404C21.3663 3.83662 20.8622 2.46945 19.8539 1.48253C18.8328 0.491328 17.44 0 15.6584 0Z" fill="white"/>
</svg>
