<svg width="19" height="19" viewBox="0 0 19 19" fill="none" xmlns="http://www.w3.org/2000/svg">
<path d="M12.3345 9.45056C13.582 8.48499 14.3937 6.97686 14.3937 5.27642C14.3937 2.36264 12.0311 0 9.11731 0C6.20354 0 3.84089 2.36264 3.84089 5.27642C3.84089 6.97686 4.64837 8.48499 5.9002 9.45056C2.46091 10.7537 0 14.0776 0 17.9698C0 18.4397 0.384517 18.8242 0.854482 18.8242C1.32445 18.8242 1.70896 18.4397 1.70896 17.9698C1.70896 13.8853 5.03289 10.5614 9.11731 10.5614C13.2018 10.5614 16.5257 13.8853 16.5257 17.9698C16.5257 18.4397 16.9102 18.8242 17.3802 18.8242C17.8501 18.8242 18.2347 18.4397 18.2347 17.9698C18.2304 14.0776 15.7737 10.7537 12.3345 9.45056ZM9.11308 1.70896C11.0784 1.70896 12.6805 3.31112 12.6805 5.27642C12.6805 7.24175 11.0784 8.84387 9.11308 8.84387C7.14775 8.84387 5.54558 7.24175 5.54558 5.27642C5.54986 3.31112 7.14775 1.70896 9.11308 1.70896Z" fill="white"/>
</svg>
