<svg width="21" height="21" viewBox="0 0 21 21" fill="none" xmlns="http://www.w3.org/2000/svg">
<path fill-rule="evenodd" clip-rule="evenodd" d="M14.9791 8.34402C14.9791 4.68684 12.0012 1.70896 8.34401 1.70896C4.68257 1.70896 1.70896 4.68684 1.70896 8.34402C1.70896 12.0012 4.68684 14.9791 8.34401 14.9791C12.0012 14.9791 14.9791 12.0012 14.9791 8.34402ZM0 8.34402C0 3.73408 3.73409 0 8.34401 0C12.9497 0 16.688 3.73408 16.688 8.34402C16.688 10.3408 15.9875 12.1732 14.8186 13.609L19.8156 18.6061C20.1489 18.9393 20.1489 19.4819 19.8156 19.8152C19.649 19.9818 19.4311 20.0673 19.209 20.0673C18.9911 20.0673 18.7732 19.9818 18.6066 19.8152L13.6096 14.8182C12.1736 15.9873 10.341 16.688 8.34401 16.688C3.73409 16.688 0 12.9539 0 8.34402Z" fill="white"/>
</svg>
