<svg width="17" height="17" viewBox="0 0 17 17" fill="none" xmlns="http://www.w3.org/2000/svg">
<path d="M10.875 6L8.625 1.5L5.7888 6L0.75 7.125L3.75 10.5V16.125L8.25 14.25L13.125 15.75L12.75 10.875L16.125 7.125L10.875 6Z" fill="#E1E1E1"/>
<path d="M8.35691 2.03172C8.36653 2.03172 8.37294 2.03493 8.37614 2.04454L9.94623 5.22963C10.3243 5.99226 11.0517 6.52097 11.8945 6.64591L15.4192 7.1586C15.4256 7.16501 15.432 7.18103 15.4224 7.19706L12.8782 9.67721C12.2694 10.27 11.9906 11.1287 12.1348 11.9651L12.7372 15.477C12.734 15.4834 12.7244 15.493 12.7084 15.493C12.7052 15.493 12.702 15.493 12.6988 15.493L9.5553 13.8396C9.18684 13.6441 8.77027 13.5416 8.3505 13.5416C7.93394 13.5416 7.51738 13.6441 7.14568 13.8396L3.99905 15.4898C3.99264 15.4898 3.97662 15.477 3.97662 15.461L4.57583 11.9619C4.72003 11.1223 4.44125 10.2668 3.83243 9.67401L1.2818 7.18744C1.2818 7.18103 1.285 7.16181 1.30423 7.1554L4.81936 6.64591C5.66207 6.52418 6.38945 5.99546 6.76756 5.22963L8.3441 2.03493C8.34089 2.03493 8.3473 2.03172 8.35691 2.03172ZM8.35691 0.75C7.89229 0.75 7.42766 0.993527 7.18733 1.47738L5.61724 4.66246C5.42818 5.04698 5.05969 5.31294 4.63351 5.37703L1.11838 5.88652C0.0481382 6.04353 -0.378035 7.35727 0.394202 8.11029L2.93842 10.5904C3.24603 10.8916 3.38702 11.321 3.31332 11.744L2.71412 15.2431C2.56993 16.0858 3.23962 16.7715 3.99905 16.7715C4.20092 16.7715 4.406 16.7235 4.60788 16.6177L7.75129 14.9643C7.94035 14.865 8.14863 14.8137 8.35691 14.8137C8.5652 14.8137 8.77348 14.865 8.96253 14.9643L12.106 16.6177C12.3046 16.7235 12.5129 16.7715 12.7148 16.7715C13.4742 16.7715 14.1439 16.0858 13.9997 15.2431L13.4005 11.744C13.3268 11.321 13.4678 10.8884 13.7754 10.5904L16.3196 8.11029C17.0951 7.35407 16.6657 6.04032 15.5954 5.88652L12.0803 5.37703C11.6541 5.31614 11.2888 5.04698 11.0966 4.66246L9.5265 1.47738C9.28617 0.993527 8.82154 0.75 8.35691 0.75Z" fill="#E1E1E1"/>
</svg>
